<svg width="139" height="56" viewBox="0 0 139 56" fill="none" xmlns="http://www.w3.org/2000/svg">
<path d="M0 0H139V44C139 50.6274 133.627 56 127 56H0V0Z" fill="#2E2C30"/>
<g clip-path="url(#clip0_1164_471)">
<g clip-path="url(#clip1_1164_471)">
<path d="M111.695 24.7945C110.476 25.3221 109.916 26.7244 110.446 27.9266C110.976 29.1288 112.393 29.6757 113.613 29.1481C114.832 28.6205 115.392 27.2182 114.862 26.016C114.333 24.8138 112.915 24.2669 111.695 24.7945Z" stroke="#B8952E" stroke-width="1.5948" stroke-linecap="round" stroke-linejoin="round"/>
<path d="M110.416 26.1081L106.32 24.5283" stroke="#B8952E" stroke-width="1.5948" stroke-linecap="round" stroke-linejoin="round"/>
<path d="M102.989 32.8806L107.936 20.4775" stroke="#B8952E" stroke-width="1.5948" stroke-linecap="round" stroke-linejoin="round"/>
<path d="M107.86 16.0874C106.64 16.615 106.081 18.0173 106.611 19.2195C107.14 20.4217 108.558 20.9686 109.778 20.441C110.997 19.9133 111.556 18.5111 111.027 17.3089C110.497 16.1066 109.079 15.5598 107.86 16.0874Z" stroke="#B8952E" stroke-width="1.5948" stroke-linecap="round" stroke-linejoin="round"/>
<path d="M103.365 23.3883L97.8752 21.271" stroke="#B8952E" stroke-width="1.5948" stroke-linecap="round" stroke-linejoin="round"/>
</g>
<path d="M35.68 37.3899H33.76V31.3299H27.72V37.3899H25.8V23.7899L27.72 23.6899V29.7899H33.76V23.7899H35.68V37.3899ZM41.1366 34.5899C41.1366 34.8299 41.1966 35.0699 41.3166 35.3099C41.4366 35.5366 41.6166 35.7299 41.8566 35.8899C42.0966 36.0366 42.3966 36.1099 42.7566 36.1099C43.2499 36.1099 43.7099 35.9899 44.1366 35.7499C44.5766 35.5099 44.9632 35.2032 45.2966 34.8299V32.8699H42.9366C42.3499 32.8699 41.9032 33.0432 41.5966 33.3899C41.2899 33.7366 41.1366 34.1366 41.1366 34.5899ZM40.5366 29.8099L39.9966 28.2899C40.2499 28.1166 40.5832 27.9699 40.9966 27.8499C41.4099 27.7166 41.8299 27.6166 42.2566 27.5499C42.6832 27.4699 43.0299 27.4299 43.2966 27.4299C44.0432 27.4299 44.7099 27.5832 45.2966 27.8899C45.8966 28.1832 46.3632 28.5899 46.6966 29.1099C47.0432 29.6166 47.2166 30.1832 47.2166 30.8099V37.3899H45.8766L45.6366 36.4699C45.3032 36.7632 44.8766 37.0299 44.3566 37.2699C43.8366 37.5099 43.3166 37.6299 42.7966 37.6299C41.6499 37.6299 40.7966 37.3432 40.2366 36.7699C39.6899 36.1966 39.4166 35.4699 39.4166 34.5899C39.4166 33.6166 39.7432 32.8766 40.3966 32.3699C41.0632 31.8499 41.9232 31.5899 42.9766 31.5899H45.2766V31.4899C45.2766 30.8232 45.1432 30.2699 44.8766 29.8299C44.6099 29.3766 44.0966 29.1499 43.3366 29.1499C42.7632 29.1499 42.2432 29.2232 41.7766 29.3699C41.3099 29.5032 40.8966 29.6499 40.5366 29.8099ZM52.4798 37.3899H50.5398V27.6899H52.4798V37.3899ZM51.4798 25.9499C51.1465 25.9499 50.8665 25.8366 50.6398 25.6099C50.4132 25.3832 50.2998 25.0966 50.2998 24.7499C50.2998 24.4166 50.4132 24.1366 50.6398 23.9099C50.8665 23.6699 51.1465 23.5499 51.4798 23.5499C51.8132 23.5499 52.0998 23.6632 52.3398 23.8899C52.5798 24.1166 52.6998 24.4032 52.6998 24.7499C52.6998 25.0832 52.5798 25.3699 52.3398 25.6099C52.0998 25.8366 51.8132 25.9499 51.4798 25.9499ZM57.7958 37.3899H55.8758V27.6899H56.9558L57.5758 29.2699C57.8291 29.0566 58.1424 28.8299 58.5158 28.5899C58.8891 28.3366 59.2758 28.1232 59.6758 27.9499C60.0891 27.7766 60.4691 27.6899 60.8158 27.6899L61.2358 29.2299C60.8891 29.2299 60.5024 29.3166 60.0758 29.4899C59.6624 29.6499 59.2558 29.8632 58.8558 30.1299C58.4691 30.3832 58.1158 30.6632 57.7958 30.9699V37.3899ZM69.0536 37.3899H64.2336V23.7899H69.1336C70.5469 23.7899 71.6936 24.0832 72.5736 24.6699C73.4669 25.2566 74.1269 26.0566 74.5536 27.0699C74.9803 28.0832 75.1936 29.2299 75.1936 30.5099C75.1936 31.8299 74.9536 33.0099 74.4736 34.0499C74.0069 35.0899 73.3203 35.9099 72.4136 36.5099C71.5069 37.0966 70.3869 37.3899 69.0536 37.3899ZM69.2136 25.4299H66.1536V35.7899H69.0536C69.8936 35.7899 70.6269 35.5899 71.2536 35.1899C71.8803 34.7899 72.3669 34.2032 72.7136 33.4299C73.0736 32.6432 73.2536 31.6766 73.2536 30.5299C73.2536 29.5166 73.1069 28.6299 72.8136 27.8699C72.5336 27.1099 72.0936 26.5166 71.4936 26.0899C70.9069 25.6499 70.1469 25.4299 69.2136 25.4299ZM79.6483 34.5899C79.6483 34.8299 79.7083 35.0699 79.8283 35.3099C79.9483 35.5366 80.1283 35.7299 80.3683 35.8899C80.6083 36.0366 80.9083 36.1099 81.2683 36.1099C81.7616 36.1099 82.2216 35.9899 82.6483 35.7499C83.0883 35.5099 83.4749 35.2032 83.8083 34.8299V32.8699H81.4483C80.8616 32.8699 80.4149 33.0432 80.1083 33.3899C79.8016 33.7366 79.6483 34.1366 79.6483 34.5899ZM79.0483 29.8099L78.5083 28.2899C78.7616 28.1166 79.0949 27.9699 79.5083 27.8499C79.9216 27.7166 80.3416 27.6166 80.7683 27.5499C81.1949 27.4699 81.5416 27.4299 81.8083 27.4299C82.5549 27.4299 83.2216 27.5832 83.8083 27.8899C84.4083 28.1832 84.8749 28.5899 85.2083 29.1099C85.5549 29.6166 85.7283 30.1832 85.7283 30.8099V37.3899H84.3883L84.1483 36.4699C83.8149 36.7632 83.3883 37.0299 82.8683 37.2699C82.3483 37.5099 81.8283 37.6299 81.3083 37.6299C80.1616 37.6299 79.3083 37.3432 78.7483 36.7699C78.2016 36.1966 77.9283 35.4699 77.9283 34.5899C77.9283 33.6166 78.2549 32.8766 78.9083 32.3699C79.5749 31.8499 80.4349 31.5899 81.4883 31.5899H83.7883V31.4899C83.7883 30.8232 83.6549 30.2699 83.3883 29.8299C83.1216 29.3766 82.6083 29.1499 81.8483 29.1499C81.2749 29.1499 80.7549 29.2232 80.2883 29.3699C79.8216 29.5032 79.4083 29.6499 79.0483 29.8099ZM91.0316 38.6099L91.5916 37.1299L88.0516 28.0099L89.8716 27.3299L92.5716 34.6499L95.1316 27.6899H97.1116L92.8116 39.1499C92.6516 39.5899 92.3982 39.9899 92.0516 40.3499C91.7182 40.7099 91.3249 41.0099 90.8716 41.2499C90.4316 41.5032 89.9582 41.6899 89.4516 41.8099L88.8116 40.3299C89.1316 40.1832 89.4382 40.0366 89.7316 39.8899C90.0249 39.7432 90.2849 39.5632 90.5116 39.3499C90.7516 39.1499 90.9249 38.9032 91.0316 38.6099Z" fill="#B8952E"/>
</g>
<defs>
<clipPath id="clip0_1164_471">
<rect width="99" height="32" fill="white" transform="translate(20 12)"/>
</clipPath>
<clipPath id="clip1_1164_471">
<rect width="19.2471" height="19.0288" fill="white" transform="matrix(-0.917788 0.397071 -0.403106 -0.915153 118.988 29.4143)"/>
</clipPath>
</defs>
</svg>
